<?xml version="1.0" standalone="no"?>
<!DOCTYPE svg PUBLIC "-//W3C//DTD SVG 20010904//EN"
 "http://www.w3.org/TR/2001/REC-SVG-20010904/DTD/svg10.dtd">
<svg version="1.0" xmlns="http://www.w3.org/2000/svg"
 width="1024.000000pt" height="1024.000000pt" viewBox="0 0 1024.000000 1024.000000"
 preserveAspectRatio="xMidYMid meet">

<g transform="translate(0.000000,1024.000000) scale(0.100000,-0.100000)"
fill="#000000" stroke="none">
<path d="M0 5120 l0 -5120 5120 0 5120 0 0 5120 0 5120 -5120 0 -5120 0 0
-5120z m3541 3514 c377 -64 850 -352 1456 -886 l112 -99 148 130 c469 412 885
686 1203 792 496 166 811 66 996 -316 86 -177 120 -415 111 -778 -7 -304 -42
-541 -132 -898 -19 -76 -35 -142 -35 -148 0 -5 64 -30 143 -56 685 -227 1152
-509 1361 -824 93 -140 132 -280 123 -439 -9 -169 -77 -329 -204 -484 -208
-254 -672 -521 -1223 -703 -96 -32 -179 -61 -183 -65 -5 -4 5 -63 22 -131 148
-609 173 -1160 70 -1538 -83 -305 -273 -515 -515 -566 -88 -19 -269 -19 -356
0 -255 54 -593 221 -921 454 -101 72 -369 283 -534 421 l-61 51 -127 -106
c-148 -124 -405 -318 -549 -414 -417 -278 -789 -431 -1048 -431 -242 1 -428
107 -562 322 -180 290 -222 813 -115 1443 16 98 90 437 104 482 2 7 -71 36
-190 77 -429 146 -799 336 -1051 539 -381 308 -480 701 -267 1061 58 97 237
281 358 368 279 198 647 364 1098 493 36 10 57 22 57 31 0 8 -21 97 -46 197
-87 348 -118 591 -118 932 0 262 14 393 60 554 63 219 195 404 346 486 114 62
286 80 469 49z"/>
<path d="M3252 8375 c-143 -44 -253 -219 -297 -474 -52 -297 -33 -716 50
-1086 37 -161 81 -334 88 -341 6 -6 369 60 402 72 13 5 15 -15 15 -133 l0
-140 -167 -28 c-93 -15 -171 -31 -175 -34 -8 -7 147 -474 216 -651 l45 -115
29 65 c16 36 33 74 38 85 10 23 16 -308 12 -677 l-3 -233 -37 74 -37 73 -16
-38 c-87 -207 -275 -739 -263 -748 4 -4 251 -55 308 -64 l45 -8 3 -143 c2
-134 2 -142 -16 -137 -10 4 -99 24 -198 45 -98 22 -187 42 -196 46 -20 8 -24
-5 -79 -260 -73 -345 -83 -436 -83 -755 0 -308 7 -372 61 -544 53 -169 135
-282 236 -327 72 -31 208 -37 314 -14 235 52 555 215 887 453 130 93 452 348
475 376 13 16 3 29 -117 143 l-132 125 0 193 0 194 229 -232 228 -231 68 59
c117 103 563 590 551 602 -2 2 -79 -1 -172 -7 -93 -6 -334 -13 -536 -17 l-368
-6 0 134 0 134 393 0 c348 0 686 13 846 33 l54 7 109 170 c158 246 291 470
349 587 40 80 62 111 98 140 89 72 278 264 333 338 180 243 257 557 245 1003
-5 204 -20 304 -62 402 -13 34 -13 36 3 31 42 -13 115 -26 119 -22 10 9 73
275 97 406 43 233 57 368 63 585 8 308 -21 499 -97 661 -76 158 -175 234 -319
242 -265 15 -628 -152 -1091 -504 -176 -133 -375 -300 -461 -386 l-69 -69
-162 2 -163 2 -95 91 c-288 276 -718 590 -990 725 -137 68 -259 112 -359 131
-74 14 -197 11 -249 -5z m2523 -1095 c203 -24 365 -69 530 -150 324 -157 564
-488 626 -865 29 -173 10 -540 -37 -730 -47 -190 -149 -371 -288 -509 -197
-197 -394 -305 -666 -366 -207 -46 -267 -50 -864 -50 l-566 -1 0 -804 0 -805
-430 0 -430 0 5 2138 c3 1175 5 2140 5 2145 0 11 2011 8 2115 -3z"/>
<path d="M4800 6562 l-295 -2 3 -631 2 -631 503 4 c469 5 507 6 578 26 120 32
195 75 275 157 191 193 236 483 116 738 -56 119 -189 234 -328 282 -151 53
-297 62 -854 57z"/>
<path d="M7305 6113 c-45 -162 -145 -447 -243 -692 -99 -250 -108 -276 -96
-300 80 -164 228 -551 309 -806 32 -99 62 -184 66 -189 23 -25 544 176 788
305 384 202 606 428 642 655 29 178 -64 349 -286 529 -235 190 -547 350 -965
493 -215 73 -196 72 -215 5z"/>
<path d="M2670 6081 c-241 -81 -338 -120 -520 -211 -234 -118 -427 -258 -550
-401 -162 -188 -181 -388 -56 -583 132 -206 482 -444 908 -615 128 -52 412
-151 432 -151 6 0 44 98 84 218 86 256 156 441 244 648 l65 151 -99 244 c-54
134 -133 350 -174 479 -96 297 -93 290 -113 290 -9 0 -108 -31 -221 -69z"/>
<path d="M6731 4661 c-94 -187 -172 -327 -329 -594 -91 -154 -107 -186 -89
-182 12 2 93 16 179 30 184 29 569 113 595 130 12 7 -176 546 -259 745 l-15
35 -82 -164z"/>
<path d="M7055 3764 c-215 -57 -572 -122 -931 -169 -39 -6 -47 -13 -120 -108
-136 -177 -312 -376 -502 -569 l-184 -186 43 -39 c23 -21 94 -80 158 -132 423
-342 749 -543 1046 -642 125 -41 135 -43 250 -43 151 0 214 21 286 96 82 85
157 262 190 448 23 124 18 539 -9 736 -33 246 -110 626 -128 630 -5 1 -49 -9
-99 -22z"/>
</g>
</svg>
